<svg width="60" height="60" viewBox="0 0 60 60" fill="none" xmlns="http://www.w3.org/2000/svg">
<path d="M28.5891 7.21875C28.847 7.57591 28.9819 8.0072 28.9734 8.44767C28.965 8.88814 28.8136 9.31394 28.5422 9.66094C26.9813 11.6578 23.6719 15.6562 20.3812 18.0844C16.3219 21.0844 12.6234 22.4297 10.7391 22.9781C9.90469 23.2219 9.01406 22.8984 8.5125 22.1906C7.275 20.4516 5.30625 16.725 6.07969 11.4516C7.17187 3.95156 15.7641 0.332812 21.3328 2.13281C26.9016 3.93281 28.5891 7.21875 28.5891 7.21875Z" fill="#FFC107"/>
<path d="M11.4844 21.5766C10.9359 21.8062 10.4391 21.1641 10.7906 20.6906C11.8219 19.3125 13.8234 17.0531 17.475 14.1094C21.4359 10.9172 24.2438 9.78749 25.7766 9.38905C26.3063 9.25311 26.7141 9.84843 26.3953 10.2937C25.3594 11.7469 23.1797 14.4 19.6125 16.9453C16.1531 19.4156 13.2188 20.8453 11.4844 21.5766Z" fill="url(#paint0_radial_2798_15232)"/>
<path d="M15.3422 4.09687C15.5578 5.025 16.7297 5.34843 17.8641 5.15625C19.0922 4.95 20.6391 4.77656 20.4938 3.52968C20.3438 2.24062 18.2906 2.29218 17.5313 2.33437C16.4203 2.4 15.15 3.27656 15.3422 4.09687Z" fill="#FFEE58"/>
<path d="M39.4922 1.74374C45.0984 0.234367 53.3297 2.16562 54.9797 11.8781C55.6078 15.5672 54.1406 18.8344 53.1141 20.5781C52.6078 21.4406 51.6187 21.9 50.6391 21.7031C48.7266 21.3187 45.1641 20.2453 40.3922 17.2641C37.7391 15.6094 34.1297 12.3844 32.0859 10.4859C31.1625 9.62812 31.0734 8.18905 31.9031 7.23749C33.525 5.37655 36.3797 2.5828 39.4922 1.74374Z" fill="#FFC107"/>
<path d="M34.4156 10.5469C34.1203 10.2516 34.4016 9.75469 34.8094 9.85782C36.6 10.3078 39.9047 11.3156 42.8391 13.1484C45.8484 15.0328 48.8906 17.8969 50.4328 19.4297C50.7375 19.7297 50.4375 20.2359 50.025 20.1141C48.1406 19.5656 44.6766 18.3469 41.25 16.0359C37.7672 13.6875 35.55 11.6766 34.4156 10.5469Z" fill="url(#paint1_radial_2798_15232)"/>
<path d="M39.1828 5.55001C37.3313 6.13126 36.8109 4.82345 37.8 3.8297C38.5125 3.11251 41.5172 1.83283 44.1234 2.37658C45.8438 2.73751 46.3828 5.2172 43.9594 5.18439C42.3094 5.16095 41.4516 4.83751 39.1828 5.55001Z" fill="#FFEE58"/>
<path d="M51.5719 56.2735C45.7359 52.6031 41.8266 45.4547 41.1141 37.1485C40.4719 29.6438 42.2906 22.0453 43.7531 15.9422L46.7531 17.3063C45.3562 23.1469 44.2594 29.925 44.85 36.825C45.4594 43.9641 48.7219 50.0485 53.5687 53.0953L51.5719 56.2735ZM28.3969 54.9797L26.85 51.5625C28.6828 50.7328 29.7422 48.3281 29.1141 46.4203C28.8094 45.4875 28.1531 44.5969 27.4641 43.6547C26.9016 42.886 26.3156 42.0891 25.8375 41.175C24.5906 38.7844 24.2953 35.925 25.0359 33.3328C25.4109 32.025 26.0062 30.8672 26.5875 29.7469C27.2437 28.4813 27.8578 27.2906 28.0172 26.0906C28.1625 24.9797 27.9 23.8031 27.2906 22.861C26.7375 22.0125 25.8844 21.2813 24.9797 20.5125C24.2953 19.9266 23.5828 19.3219 22.9312 18.6094C21.3891 16.9219 20.7891 14.911 20.7984 12.6656L23.4094 11.6766C23.4094 11.6766 23.8828 14.2266 24.5203 15.2438C25.1906 16.3078 26.1891 17.0297 27.1359 17.8359C28.2047 18.75 29.5875 19.5141 30.4359 20.8266C31.5234 22.5047 31.9969 24.6047 31.7344 26.5922C31.4906 28.4391 30.6891 29.986 29.9156 31.4813C29.4 32.4797 28.9125 33.4219 28.6406 34.3735C28.1625 36.0516 28.35 37.9031 29.1609 39.45C29.5078 40.1156 29.9812 40.7625 30.4875 41.4516C31.3219 42.5906 32.1844 43.7625 32.6766 45.2625C33.9094 48.9891 31.9875 53.3578 28.3969 54.9797Z" fill="#03A9F4"/>
<path d="M4.92656 57.8016L2.70937 54.7781C16.9266 44.3625 18.4406 29.1094 17.4375 21.3375L20.2687 20.4703C21.3797 29.0625 20.6953 46.2516 4.92656 57.8016Z" fill="#F48FB1"/>
<path d="M44.4938 34.3875L44.7422 34.5797C44.7141 33.0375 44.7891 31.4859 44.9344 29.9484C43.6781 28.9031 42.5063 27.7828 41.6625 26.4703C41.6391 26.4328 41.6203 26.3953 41.5969 26.3578C41.3438 28.0453 41.1469 29.7703 41.0531 31.5094C42.1734 32.5828 43.3734 33.5203 44.4938 34.3875Z" fill="#0076C6"/>
<path d="M53.8734 44.6953L50.4703 43.1156C51.3375 41.25 50.6109 38.9953 49.6453 37.5094C48.3891 35.5781 46.4109 34.0406 44.4938 32.5547C42.4359 30.9609 40.1063 29.1562 38.5031 26.6578C35.5547 22.0687 36.075 16.3547 39.3984 12.0281L42.1219 13.5516C39.7313 16.6687 39.5391 21.3234 41.6578 24.6281C42.9094 26.5828 44.8828 28.1062 46.7906 29.5875C48.8531 31.1859 51.1875 32.9953 52.7906 35.4609C54.7219 38.4375 55.1391 41.9766 53.8734 44.6953ZM4.21406 43.4016C3.51094 39.4266 6.41719 37.3687 7.97813 36.2625C8.16563 36.1312 8.39531 35.9672 8.55469 35.8406C8.54063 35.5078 8.31563 35.0906 7.89375 34.3828C7.2 33.2156 6.25313 31.6125 6.97969 29.5734C7.6125 27.8016 9.45 27.2156 10.6688 26.5312C11.7094 25.9453 12.4641 25.2328 12.8391 24.0422C13.275 22.6547 12.9703 19.1672 12.9703 19.1672L15.2578 17.8312C15.2578 17.8312 15.9797 21.1641 15.9797 22.8609C15.9797 27.6703 13.3125 28.8984 12.1875 29.5312C11.4094 29.9672 10.6734 30.3797 10.5141 30.8297C10.3969 31.1578 10.5609 31.5281 11.1234 32.475C11.7984 33.6094 12.7172 35.1703 12.1172 37.1625C11.8266 38.1328 11.0109 38.7141 10.1484 39.3234C8.62031 40.4062 7.63594 41.2312 7.90781 42.75L4.21406 43.4016ZM35.1797 38.5594C33.5109 38.1609 32.3719 37.1672 31.35 36.3234L33.7406 33.4312C33.7406 33.4312 34.5891 34.6922 36.45 35.2734L35.1797 38.5594ZM32.1703 17.4562L29.4 15.8297L31.4063 12.6562L34.1813 14.2828L32.1703 17.4562ZM39.3609 53.2312L35.625 50.9109L38.5078 47.7047L41.3906 50.4422L39.3609 53.2312Z" fill="#F44336"/>
<path d="M51.1908 28.2028L53.3892 25.1653L56.6517 27.5259L54.4528 30.5634L51.1908 28.2028Z" fill="#FB8C00"/>
<path d="M24.7922 26.7469L21.4828 24.4594L23.2031 22.1766L26.5078 24.4641L24.7922 26.7469Z" fill="#F44336"/>
<path d="M28.7953 30.7453C28.7953 30.7453 29.4328 30.7219 30.225 30.8766C30.7969 29.7516 31.3406 28.5797 31.6219 27.2625C30.6469 27.0422 29.8641 27.15 29.8641 27.15L28.7953 30.7453Z" fill="#0076C6"/>
<path d="M33.2437 31.1859C31.9359 30.0703 29.7516 30.15 29.7516 30.15L30.8156 26.5547C30.8156 26.5547 33.2344 26.2172 34.8656 27.9188L33.2437 31.1859ZM2.17547 46.0828L5.57719 45.8747L5.80547 49.6181L2.40422 49.8253L2.17547 46.0828ZM20.2359 45.4266L18.075 42.3609C19.0312 41.6859 19.9078 40.8844 20.6672 39.9891L23.5266 42.4172C22.5595 43.5537 21.4541 44.5646 20.2359 45.4266Z" fill="#FB8C00"/>
<path d="M20.2641 54.0891C19.1391 53.1609 17.9484 52.2984 16.7203 51.5203L18.7266 48.3516C20.0859 49.2094 21.4031 50.1656 22.65 51.1922L20.2641 54.0891Z" fill="#F44336"/>
<path d="M41.1797 37.5422C41.3109 39.0938 41.4938 40.2094 41.8406 41.6625L44.3109 39.6797L41.9063 36.675L41.1797 37.5422Z" fill="#0076C6"/>
<path d="M37.2047 39.9347L40.9828 36.9061L43.328 39.8316L39.5498 42.8606L37.2047 39.9347Z" fill="#FFC107"/>
<path d="M35.9156 58.7156C35.2594 57.5109 34.5234 56.3344 33.7266 55.2188L36.7781 53.0391C37.6672 54.2828 38.4781 55.5806 39.2063 56.925L35.9156 58.7156Z" fill="#FB8C00"/>
<defs>
<radialGradient id="paint0_radial_2798_15232" cx="0" cy="0" r="1" gradientUnits="userSpaceOnUse" gradientTransform="translate(18.5916 15.4997) scale(7.07906 7.07906)">
<stop offset="0.376" stop-color="#AF5700"/>
<stop offset="1" stop-color="#8F4700"/>
</radialGradient>
<radialGradient id="paint1_radial_2798_15232" cx="0" cy="0" r="1" gradientUnits="userSpaceOnUse" gradientTransform="translate(42.4223 14.9859) scale(9.94875)">
<stop offset="0.376" stop-color="#AF5700"/>
<stop offset="1" stop-color="#8F4700"/>
</radialGradient>
</defs>
</svg>
