<svg width="107" height="31" viewBox="0 0 107 31" fill="none" xmlns="http://www.w3.org/2000/svg">
<rect width="33.381" height="30.9206" rx="6.92063" fill="#246BFD"/>
<path d="M15.3395 23.8236L10.0833 11.8821H9.93799L9.55043 23.4603L7.12821 23.5814L8.26665 7.71587L14.1284 7.47365L16.5749 19.0034L19.4089 7.35253L25.2707 7.71587L25.9973 23.4603L23.8173 23.8236L20.3535 10.9374H20.1598L17.5195 23.4603L15.3395 23.8236Z" fill="#FCFDFE"/>
<rect width="3.46032" height="12.1111" transform="matrix(0 1 -1 0 36.332 12.1113)" fill="#FCFDFE"/>
<path d="M45.0382 10.7482V13.1567H37.4429V10.7482H45.0382ZM39.3181 7.58279H42.4319V19.9864C42.4319 20.405 42.495 20.7261 42.6211 20.9497C42.753 21.1676 42.925 21.3167 43.1372 21.397C43.3494 21.4773 43.5845 21.5174 43.8426 21.5174C44.0375 21.5174 44.2153 21.5031 44.3759 21.4744C44.5422 21.4458 44.6683 21.42 44.7543 21.397L45.279 23.8313C45.1127 23.8886 44.8748 23.9517 44.5651 24.0205C44.2612 24.0893 43.8884 24.1295 43.4469 24.1409C42.667 24.1639 41.9645 24.0463 41.3395 23.7883C40.7144 23.5245 40.2184 23.1174 39.8514 22.5668C39.4901 22.0163 39.3124 21.3282 39.3181 20.5025V7.58279ZM47.6423 23.9603V10.7482H50.6615V12.9502H50.7991C51.04 12.1875 51.4529 11.5998 52.0378 11.1869C52.6284 10.7683 53.3022 10.559 54.0592 10.559C54.2312 10.559 54.4233 10.5676 54.6355 10.5848C54.8534 10.5962 55.034 10.6163 55.1774 10.645V13.5093C55.0455 13.4634 54.8362 13.4233 54.5494 13.3889C54.2685 13.3488 53.9961 13.3287 53.7323 13.3287C53.1646 13.3287 52.6542 13.452 52.2012 13.6986C51.7539 13.9394 51.4012 14.2749 51.1432 14.7049C50.8852 15.135 50.7561 15.6311 50.7561 16.193V23.9603H47.6423ZM60.8114 24.227C59.9742 24.227 59.2201 24.0779 58.5492 23.7797C57.884 23.4758 57.3565 23.0285 56.9665 22.4378C56.5823 21.8472 56.3902 21.1189 56.3902 20.253C56.3902 19.5075 56.5278 18.8911 56.8031 18.4037C57.0783 17.9162 57.4539 17.5263 57.9299 17.2338C58.4059 16.9414 58.942 16.7206 59.5384 16.5715C60.1405 16.4167 60.7627 16.3049 61.405 16.236C62.1791 16.1558 62.807 16.0841 63.2887 16.021C63.7704 15.9522 64.1202 15.849 64.3381 15.7113C64.5618 15.568 64.6736 15.3472 64.6736 15.049V14.9974C64.6736 14.3494 64.4815 13.8476 64.0973 13.4921C63.7131 13.1366 63.1597 12.9588 62.4372 12.9588C61.6745 12.9588 61.0695 13.1251 60.6222 13.4577C60.1807 13.7903 59.8825 14.1831 59.7276 14.6361L56.8203 14.2233C57.0497 13.4204 57.4281 12.7495 57.9557 12.2105C58.4833 11.6657 59.1284 11.2586 59.8911 10.989C60.6537 10.7138 61.4967 10.5762 62.42 10.5762C63.0565 10.5762 63.6901 10.6507 64.3209 10.7998C64.9517 10.9489 65.528 11.1955 66.0498 11.5395C66.5717 11.8779 66.9903 12.3395 67.3057 12.9244C67.6268 13.5093 67.7874 14.2405 67.7874 15.1178V23.9603H64.794V22.1454H64.6908C64.5015 22.5124 64.2349 22.8564 63.8908 23.1776C63.5525 23.493 63.1253 23.7481 62.6092 23.9431C62.0988 24.1323 61.4996 24.227 60.8114 24.227ZM61.62 21.9389C62.2451 21.9389 62.787 21.8156 63.2457 21.5691C63.7045 21.3167 64.0571 20.9841 64.3037 20.5713C64.556 20.1584 64.6822 19.7082 64.6822 19.2208V17.6639C64.5847 17.7442 64.4184 17.8187 64.1833 17.8876C63.9539 17.9564 63.6959 18.0166 63.4091 18.0682C63.1224 18.1198 62.8386 18.1657 62.5576 18.2058C62.2766 18.246 62.0329 18.2804 61.8264 18.309C61.362 18.3721 60.9462 18.4753 60.5792 18.6187C60.2122 18.7621 59.9226 18.9628 59.7104 19.2208C59.4983 19.4731 59.3922 19.8 59.3922 20.2014C59.3922 20.7748 59.6015 21.2078 60.0201 21.5002C60.4387 21.7927 60.972 21.9389 61.62 21.9389ZM76.6815 24.2184C75.3626 24.2184 74.23 23.9288 73.2838 23.3496C72.3434 22.7704 71.618 21.9705 71.1076 20.9497C70.603 19.9233 70.3507 18.742 70.3507 17.4059C70.3507 16.064 70.6087 14.8798 71.1248 13.8534C71.6409 12.8212 72.3692 12.0184 73.3096 11.4449C74.2558 10.8657 75.374 10.5762 76.6643 10.5762C77.7366 10.5762 78.6857 10.774 79.5114 11.1697C80.3429 11.5596 81.0052 12.113 81.4984 12.8298C81.9916 13.5409 82.2725 14.3723 82.3414 15.3243H79.3652C79.2448 14.6877 78.958 14.1573 78.505 13.733C78.0577 13.3029 77.4585 13.0878 76.7073 13.0878C76.0708 13.0878 75.5116 13.2599 75.03 13.6039C74.5483 13.9423 74.1727 14.4297 73.9031 15.0662C73.6394 15.7027 73.5075 16.4654 73.5075 17.3543C73.5075 18.2546 73.6394 19.0287 73.9031 19.6767C74.1669 20.319 74.5368 20.815 75.0128 21.1648C75.4944 21.5088 76.0593 21.6809 76.7073 21.6809C77.166 21.6809 77.576 21.5949 77.9373 21.4228C78.3043 21.2451 78.6111 20.9899 78.8577 20.6573C79.1043 20.3247 79.2734 19.9204 79.3652 19.4445H82.3414C82.2668 20.3792 81.9916 21.2078 81.5156 21.9303C81.0396 22.6471 80.3916 23.2091 79.5716 23.6162C78.7516 24.0177 77.7882 24.2184 76.6815 24.2184ZM87.7367 19.8143L87.7281 16.0554H88.227L92.9751 10.7482H96.6136L90.7731 17.251H90.128L87.7367 19.8143ZM84.8982 23.9603V6.34415H88.012V23.9603H84.8982ZM93.1902 23.9603L88.8894 17.9478L90.9882 15.7543L96.9147 23.9603H93.1902ZM98.6888 23.9603V10.7482H101.708V12.9502H101.846C102.086 12.1875 102.499 11.5998 103.084 11.1869C103.675 10.7683 104.349 10.559 105.106 10.559C105.278 10.559 105.47 10.5676 105.682 10.5848C105.9 10.5962 106.08 10.6163 106.224 10.645V13.5093C106.092 13.4634 105.883 13.4233 105.596 13.3889C105.315 13.3488 105.043 13.3287 104.779 13.3287C104.211 13.3287 103.701 13.452 103.248 13.6986C102.8 13.9394 102.448 14.2749 102.19 14.7049C101.932 15.135 101.803 15.6311 101.803 16.193V23.9603H98.6888Z" fill="#010114"/>
</svg>
