<svg width="248" height="185" viewBox="0 0 248 185" fill="none" xmlns="http://www.w3.org/2000/svg">
<path d="M247.798 162.281H0V162.405H247.798V162.281Z" fill="#EBEBEB"/>
<path d="M222.969 170.258H215.584V170.382H222.969V170.258Z" fill="#EBEBEB"/>
<path d="M164.151 171.603H159.843V171.727H164.151V171.603Z" fill="#EBEBEB"/>
<path d="M213.491 165.656H196.546V165.78H213.491V165.656Z" fill="#EBEBEB"/>
<path d="M54.3318 168.213H32.9258V168.337H54.3318V168.213Z" fill="#EBEBEB"/>
<path d="M66.4651 168.213H58.7451V168.337H66.4651V168.213Z" fill="#EBEBEB"/>
<path d="M126.255 166.55H79.8301V166.674H126.255V166.55Z" fill="#EBEBEB"/>
<path d="M117.463 140.178H21.7626C21.0125 140.177 20.2934 139.879 19.7631 139.349C19.2327 138.818 18.9344 138.099 18.9336 137.349V2.828C18.9347 2.07812 19.2331 1.35927 19.7634 0.829121C20.2938 0.298968 21.0127 0.000793618 21.7626 0H117.463C118.212 0.00105816 118.931 0.299348 119.461 0.829472C119.991 1.3596 120.29 2.07829 120.291 2.828V137.347C120.29 138.097 119.992 138.817 119.462 139.347C118.932 139.878 118.213 140.177 117.463 140.178ZM21.7636 0.124001C21.0482 0.126111 20.3626 0.411253 19.8567 0.917145C19.3508 1.42304 19.0657 2.10857 19.0636 2.824V137.347C19.0657 138.062 19.3508 138.748 19.8567 139.254C20.3626 139.76 21.0482 140.045 21.7636 140.047H117.464C118.179 140.045 118.865 139.76 119.37 139.254C119.876 138.748 120.161 138.062 120.164 137.347V2.828C120.161 2.11256 119.876 1.42703 119.37 0.921143C118.865 0.415251 118.179 0.130113 117.464 0.128002L21.7636 0.124001Z" fill="#EBEBEB"/>
<path d="M224.659 140.178H128.959C128.209 140.177 127.49 139.879 126.96 139.348C126.43 138.818 126.132 138.099 126.131 137.349V2.828C126.132 2.07821 126.43 1.35936 126.96 0.829182C127.49 0.299001 128.209 0.000794128 128.959 0H224.659C225.409 0.000793618 226.128 0.298968 226.658 0.829121C227.188 1.35927 227.487 2.07812 227.488 2.828V137.347C227.488 138.097 227.19 138.817 226.659 139.348C226.129 139.879 225.409 140.177 224.659 140.178ZM128.959 0.124001C128.243 0.126111 127.558 0.411253 127.052 0.917145C126.546 1.42304 126.261 2.10857 126.259 2.824V137.347C126.261 138.062 126.546 138.748 127.052 139.254C127.558 139.76 128.243 140.045 128.959 140.047H224.659C225.375 140.046 226.062 139.762 226.569 139.256C227.076 138.75 227.362 138.063 227.364 137.347V2.828C227.362 2.1117 227.076 1.42542 226.569 0.919384C226.062 0.41335 225.375 0.128793 224.659 0.128002L128.959 0.124001Z" fill="#EBEBEB"/>
<path d="M106.292 162.28H115.521L115.521 98.908H106.292V162.28Z" fill="#E6E6E6"/>
<path d="M109.542 162.28H106.293V150.24H112.948L109.542 162.28Z" fill="#F0F0F0"/>
<path d="M203.887 162.28H213.116V98.908H203.887V162.28Z" fill="#E6E6E6"/>
<path d="M106.293 158.993H206.722V98.908L106.293 98.908L106.293 158.993Z" fill="#F0F0F0"/>
<path d="M203.477 162.28H206.726V150.24H200.067L203.477 162.28Z" fill="#F0F0F0"/>
<path d="M173.612 103.883V153.587H203.383V103.883H173.612Z" fill="#E6E6E6"/>
<path d="M185.553 105.631H191.443C193.936 105.656 196.348 104.75 198.207 103.089H178.79C180.649 104.75 183.061 105.656 185.553 105.631Z" fill="#F0F0F0"/>
<path d="M141.622 103.883V153.587H171.393V103.883H141.622Z" fill="#E6E6E6"/>
<path d="M153.262 105.631H159.152C161.644 105.656 164.056 104.75 165.915 103.089H146.498C148.357 104.75 150.769 105.656 153.262 105.631Z" fill="#F0F0F0"/>
<path d="M109.632 103.883V153.587H139.403V103.883H109.632Z" fill="#E6E6E6"/>
<path d="M121.272 105.631H127.162C129.654 105.656 132.067 104.75 133.926 103.089H114.508C116.367 104.75 118.779 105.656 121.272 105.631Z" fill="#F0F0F0"/>
<path d="M34.6814 162.28H97.6514L97.6514 20.728H34.6814L34.6814 162.28Z" fill="#F0F0F0"/>
<path d="M34.6813 162.28H96.3223L96.3223 20.728H34.6813L34.6813 162.28Z" fill="#F5F5F5"/>
<path d="M92.5664 159.068L92.5664 23.94L38.4374 23.94L38.4374 159.068H92.5664Z" fill="#F0F0F0"/>
<path d="M87.2478 49.071C87.2478 47.1331 86.8661 45.2141 86.1245 43.4237C85.3829 41.6333 84.2959 40.0065 82.9256 38.6362C81.5553 37.2659 79.9285 36.1789 78.1381 35.4373C76.3477 34.6957 74.4287 34.314 72.4908 34.314H58.5148C54.601 34.314 50.8475 35.8688 48.08 38.6362C45.3126 41.4037 43.7578 45.1572 43.7578 49.071H87.2478Z" fill="#FAFAFA"/>
<path d="M87.248 150.669V118.387H43.758V150.669H87.248Z" fill="#F5F5F5"/>
<path d="M87.2475 58.173H68.0645V114.222H87.2475V58.173Z" fill="#F5F5F5"/>
<path d="M62.9408 58.173H43.7578V114.222H62.9408V58.173Z" fill="#F5F5F5"/>
<path d="M50.7147 85.945H42.8577C42.5346 85.9442 42.225 85.8155 41.9966 85.5871C41.7682 85.3586 41.6395 85.049 41.6387 84.726C41.6397 84.403 41.7685 84.0936 41.9969 83.8652C42.2253 83.6368 42.5347 83.5081 42.8577 83.507H50.7147C51.0377 83.5081 51.3471 83.6368 51.5755 83.8652C51.8038 84.0936 51.9326 84.403 51.9337 84.726C51.9329 85.049 51.8042 85.3586 51.5758 85.5871C51.3473 85.8155 51.0377 85.9442 50.7147 85.945Z" fill="#E0E0E0"/>
<path d="M39.4131 159.068L39.4131 23.94H38.4391L38.4391 159.068H39.4131Z" fill="#F0F0F0"/>
<path d="M137.482 83.372L204.261 83.372V20.728L137.482 20.728V83.372Z" fill="#E6E6E6"/>
<path d="M135.799 83.372L202.578 83.372V20.728L135.799 20.728V83.372Z" fill="#F5F5F5"/>
<path d="M131.9 86.998L204.261 86.998V83.372L131.9 83.372V86.998Z" fill="#E6E6E6"/>
<path d="M130.005 86.998L198.639 86.998V83.372L130.005 83.372V86.998Z" fill="#F5F5F5"/>
<path d="M199.556 80.114V23.987L138.82 23.987V80.114H199.556Z" fill="white"/>
<path d="M170.871 80.114V23.987H167.504V80.114H170.871Z" fill="#F5F5F5"/>
<path d="M140.093 80.114V23.987H138.82V80.114H140.093Z" fill="#E6E6E6"/>
<path d="M172.144 80.114V23.987H170.871V80.114H172.144Z" fill="#E6E6E6"/>
<path d="M146.459 85.033C145.231 72.308 144.376 51.659 145.04 44.753C145.052 44.6343 145.088 44.5194 145.148 44.416C145.207 44.3126 145.287 44.2229 145.384 44.153C145.512 44.059 145.665 44.003 145.823 43.9914C145.982 43.9797 146.141 44.0129 146.282 44.0871C146.422 44.1614 146.539 44.2736 146.619 44.4112C146.699 44.5487 146.739 44.706 146.734 44.865C146.617 48.287 146.482 56.84 147.211 71.595C147.574 78.94 148.097 83.97 147.738 85.031L146.459 85.033Z" fill="#E6E6E6"/>
<path d="M141.881 55.704C138.381 51.821 131.242 49.06 123.964 49.074C121.107 49.08 132.657 53.591 137.464 58.574C141.305 62.712 144.467 67.4321 146.833 72.559C145.905 64.954 145.378 59.585 141.881 55.704Z" fill="#E6E6E6"/>
<path d="M148.812 56.886C151.712 52.842 158.419 49.732 165.672 49.38C168.519 49.242 157.686 54.317 153.643 59.519C150.418 63.8669 147.967 68.7382 146.396 73.919C146.184 66.306 145.908 60.931 148.812 56.886Z" fill="#E6E6E6"/>
<path d="M141.725 41.522C138.764 38.234 132.716 35.896 126.553 35.908C124.134 35.908 133.914 39.734 137.981 43.949C141.234 47.4528 143.912 51.4496 145.915 55.791C145.133 49.357 144.684 44.81 141.725 41.522Z" fill="#E6E6E6"/>
<path d="M147.594 46.385C150.053 42.96 155.73 40.327 161.871 40.029C164.282 39.912 155.109 44.209 151.685 48.614C148.953 52.2975 146.877 56.4247 145.548 60.814C145.37 54.362 145.135 49.808 147.594 46.385Z" fill="#E6E6E6"/>
<path d="M146.954 98.908C145.108 98.908 143.333 98.2022 141.991 96.9353C140.649 95.6684 139.843 93.9363 139.737 92.094L139.099 81.031H154.809L154.171 92.094C154.065 93.9363 153.258 95.6684 151.916 96.9353C150.575 98.2022 148.799 98.908 146.954 98.908Z" fill="#E6E6E6"/>
<path d="M155.825 83.546H138.084L137.576 78.946H156.337L155.825 83.546Z" fill="#E6E6E6"/>
<path d="M123.899 184.664C176.968 184.664 219.99 182.151 219.99 179.052C219.99 175.953 176.968 173.44 123.899 173.44C70.829 173.44 27.8076 175.953 27.8076 179.052C27.8076 182.151 70.829 184.664 123.899 184.664Z" fill="#F5F5F5"/>
<path d="M125.838 173.689L121.7 174.155L120.174 164.771L124.312 164.305L125.838 173.689Z" fill="#FFC3BD"/>
<path d="M144.364 174.593H140.232L139.203 165.024H143.335L144.364 174.593Z" fill="#FFC3BD"/>
<path d="M139.892 174.112H144.929C145.011 174.112 145.091 174.14 145.155 174.191C145.219 174.243 145.263 174.314 145.281 174.394L146.097 178.067C146.116 178.157 146.115 178.249 146.093 178.338C146.072 178.427 146.03 178.51 145.972 178.58C145.914 178.651 145.84 178.708 145.757 178.746C145.674 178.784 145.584 178.804 145.492 178.802C143.871 178.774 142.692 178.679 140.648 178.679C139.392 178.679 135.604 178.809 133.87 178.809C132.17 178.809 131.909 177.094 132.619 176.939C135.803 176.239 138.202 175.282 139.219 174.366C139.404 174.201 139.644 174.11 139.892 174.112Z" fill="#263238"/>
<path d="M121.632 173.446L126.116 172.938C126.198 172.928 126.28 172.947 126.35 172.991C126.419 173.034 126.471 173.1 126.498 173.178L127.723 176.735C127.754 176.821 127.765 176.913 127.755 177.004C127.745 177.095 127.714 177.182 127.665 177.259C127.616 177.336 127.55 177.401 127.472 177.449C127.394 177.497 127.306 177.526 127.215 177.535C125.595 177.691 123.247 177.861 121.215 178.092C118.838 178.362 118.442 178.998 115.638 178.933C113.938 178.893 113.512 177.168 114.225 177.033C117.473 176.402 118.101 175.911 120.682 173.885C120.952 173.653 121.281 173.501 121.632 173.446Z" fill="#263238"/>
<path d="M125.282 53.177C123.894 54.323 122.528 55.319 121.115 56.339C119.702 57.359 118.259 58.306 116.774 59.225C115.289 60.144 113.765 61.025 112.167 61.825C110.533 62.6713 108.833 63.3811 107.082 63.947C106.619 64.095 106.168 64.217 105.648 64.347C105.14 64.4572 104.626 64.5397 104.108 64.594C103.177 64.694 102.301 64.739 101.428 64.779C99.6881 64.859 97.9811 64.857 96.2761 64.845C92.8661 64.804 89.4851 64.64 86.0891 64.34L86.0381 61.24C89.3731 60.811 92.7231 60.44 96.0381 60.067C97.6951 59.887 99.3481 59.685 100.963 59.474C101.763 59.365 102.563 59.237 103.301 59.1C103.618 59.044 103.932 58.9702 104.241 58.879C104.532 58.779 104.889 58.665 105.219 58.532C106.636 57.9566 108.012 57.2837 109.336 56.518C110.707 55.731 112.079 54.886 113.427 53.988C114.775 53.09 116.117 52.16 117.447 51.211C118.777 50.262 120.106 49.257 121.354 48.311L125.282 53.177Z" fill="#FFC3BD"/>
<path d="M129.321 49.645C128.727 53.551 120.503 59.526 120.503 59.526L114.603 52.203C117.187 49.4447 119.928 46.8368 122.811 44.392C125.466 42.222 129.967 45.395 129.321 49.645Z" fill="#010114"/>
<path d="M87.1763 61.567L84.8302 59.897L84.5732 65.173C84.9279 65.1739 85.2773 65.088 85.5911 64.9228C85.9049 64.7575 86.1734 64.518 86.3732 64.225L87.1763 61.567Z" fill="#FFC3BD"/>
<path d="M82.7105 58.361L82.2305 63.532L84.5745 65.173L84.8315 59.897L82.7105 58.361Z" fill="#FFC3BD"/>
<path opacity="0.2" d="M120.176 164.774L120.962 169.611L125.101 169.145L124.315 164.308L120.176 164.774Z" fill="black"/>
<path opacity="0.2" d="M143.337 165.025H139.203L139.735 169.957H143.869L143.337 165.025Z" fill="black"/>
<path d="M143.396 44.517C143.704 44.586 143.995 44.7159 144.252 44.899C144.508 45.0821 144.726 45.3147 144.892 45.5831C145.057 45.8516 145.167 46.1504 145.216 46.4621C145.264 46.7738 145.25 47.092 145.173 47.398C144.277 51.1195 143.601 54.8907 143.149 58.692C142.758 61.892 142.524 64.949 142.378 67.72C142.035 74.215 142.178 79.166 141.984 80.844C138.753 80.62 126.577 79.773 119.938 79.309C117.697 61.765 120.323 50.569 121.798 46.02C122.024 45.3112 122.447 44.6811 123.017 44.2031C123.587 43.7251 124.281 43.4188 125.018 43.32C125.864 43.209 126.876 43.102 127.944 43.039C128.318 43.015 128.697 43.002 129.083 42.994C132.217 43.0311 135.347 43.2488 138.456 43.646C139.046 43.716 139.642 43.803 140.222 43.896C141.381 44.09 142.483 44.313 143.396 44.517Z" fill="#346AE1"/>
<path d="M138.265 33.033C137.465 36.007 136.487 41.491 138.457 43.651C133.347 47.088 130.085 51.927 129.144 50.876C128.651 50.326 128.437 43.961 129.085 42.997C132.504 42.429 132.591 39.928 132.169 37.544L138.265 33.033Z" fill="#FFC3BD"/>
<path d="M138.061 42.418C138.061 42.418 129.734 46.103 128.63 54.343C130.924 51.687 135.991 48.797 135.991 48.797L133.756 48.155C135.177 47.6156 136.649 47.2196 138.149 46.973C137.901 45.835 139.223 43.565 139.223 43.565L138.061 42.418Z" fill="#010114"/>
<path d="M130.548 42.285C130.548 42.285 131.658 46.991 128.631 54.343C128.034 51.7769 127.215 49.2675 126.185 46.843L128.224 47.398C128.224 47.398 128.124 46.449 126.473 45.187C127.161 44.1877 128.019 43.3168 129.008 42.614L130.548 42.285Z" fill="#010114"/>
<path opacity="0.2" d="M135.78 34.874L132.172 37.542C132.279 38.0972 132.337 38.6607 132.345 39.226C133.645 39.126 135.505 37.843 135.736 36.508C135.849 35.9705 135.864 35.4169 135.78 34.874Z" fill="black"/>
<path d="M127.683 24.421C125.668 24.508 124.556 27.982 126.601 30.843C128.646 33.704 130.398 24.304 127.683 24.421Z" fill="#263238"/>
<path d="M137.621 27.478C137.86 31.572 138.208 33.955 136.406 36.288C133.696 39.797 128.456 38.539 126.999 34.599C125.688 31.053 125.517 24.954 129.299 22.859C130.131 22.3926 131.069 22.1467 132.022 22.1447C132.976 22.1426 133.915 22.3845 134.748 22.8474C135.582 23.3103 136.284 23.9787 136.787 24.7892C137.29 25.5997 137.577 26.5253 137.621 27.478Z" fill="#FFC3BD"/>
<path d="M138.222 30.624C137.127 29.9823 136.171 29.1291 135.409 28.1143C134.647 27.0995 134.095 25.9433 133.785 24.713C132.585 24.997 126.604 27.749 124.765 24.713C122.926 21.677 125.24 19.896 128.681 21.765C127.159 19.079 128.543 17.765 133.325 17.649C138.107 17.533 137.464 20.305 137.464 20.305C137.464 20.305 141.084 18.729 142.364 21.505C143.847 24.695 141.111 30.142 138.222 30.624Z" fill="#263238"/>
<path d="M136.646 19.572C136.69 19.572 138.456 19.997 140.492 17.948C140.127 19.696 136.966 20.86 136.966 20.86L136.646 19.572Z" fill="#263238"/>
<path d="M139.022 25.561C137.115 24.902 134.806 27.727 135.659 31.138C136.512 34.549 141.591 26.449 139.022 25.561Z" fill="#263238"/>
<path d="M140.101 30.883C139.926 31.8997 139.356 32.8058 138.515 33.403C137.394 34.185 136.384 33.291 136.315 31.997C136.257 30.833 136.769 29.023 138.076 28.756C138.363 28.7024 138.658 28.7213 138.936 28.8111C139.214 28.9008 139.465 29.0585 139.666 29.2698C139.867 29.4812 140.012 29.7394 140.088 30.0212C140.164 30.3029 140.169 30.5992 140.101 30.883Z" fill="#FFC3BD"/>
<path d="M126.151 125.863C127.144 113.777 134.428 80.32 134.428 80.32L119.934 79.309C119.934 79.309 114.345 112.52 113.917 125.124C113.471 138.229 118.742 167.355 118.742 167.355L125.693 166.564C125.693 166.564 125.154 137.999 126.151 125.863Z" fill="#010114"/>
<path opacity="0.5" d="M126.151 125.863C127.144 113.777 134.428 80.32 134.428 80.32L119.934 79.309C119.934 79.309 114.345 112.52 113.917 125.124C113.471 138.229 118.742 167.355 118.742 167.355L125.693 166.564C125.693 166.564 125.154 137.999 126.151 125.863Z" fill="white"/>
<path opacity="0.2" d="M128.969 91.65C126.047 95.386 125.995 108.507 127.125 118.201C128.202 111.208 129.899 102.327 131.386 94.924L128.969 91.65Z" fill="black"/>
<path d="M127.756 79.854C127.756 79.854 129.32 115.229 131.065 127.209C132.975 140.328 137.826 169.001 137.826 169.001H145.394C145.394 169.001 144.149 141.995 143.15 129.106C142.013 114.425 141.982 80.846 141.982 80.846L127.756 79.854Z" fill="#010114"/>
<path opacity="0.5" d="M127.756 79.854C127.756 79.854 129.32 115.229 131.065 127.209C132.975 140.328 137.826 169.001 137.826 169.001H145.394C145.394 169.001 144.149 141.995 143.15 129.106C142.013 114.425 141.982 80.846 141.982 80.846L127.756 79.854Z" fill="white"/>
<path d="M136.916 169.162H145.827V166.5L135.866 166.327L136.916 169.162Z" fill="#010114"/>
<path d="M118.439 168.138L126.723 167.199L126.423 164.522L117.146 165.431L118.439 168.138Z" fill="#010114"/>
<path d="M131.593 29.355C131.633 29.686 131.493 29.975 131.273 30.001C131.053 30.027 130.849 29.78 130.81 29.449C130.771 29.118 130.91 28.829 131.13 28.803C131.35 28.777 131.554 29.024 131.593 29.355Z" fill="#263238"/>
<path d="M127.854 29.804C127.894 30.135 127.754 30.424 127.534 30.45C127.314 30.476 127.11 30.229 127.07 29.898C127.03 29.567 127.17 29.278 127.39 29.252C127.61 29.226 127.814 29.477 127.854 29.804Z" fill="#263238"/>
<path d="M129.062 29.826C128.789 30.8847 128.372 31.9009 127.822 32.846C128.068 32.9804 128.339 33.0596 128.618 33.0781C128.898 33.0966 129.177 33.0539 129.438 32.953L129.062 29.826Z" fill="#ED847E"/>
<path d="M132.609 28.006C132.575 28.0165 132.538 28.0173 132.502 28.0083C132.467 27.9993 132.435 27.9809 132.409 27.955C132.244 27.7731 132.038 27.633 131.808 27.5461C131.578 27.4592 131.331 27.428 131.086 27.455C131.036 27.4636 130.983 27.4522 130.941 27.4231C130.898 27.394 130.868 27.3495 130.857 27.299C130.852 27.2737 130.852 27.2476 130.857 27.2222C130.862 27.1969 130.872 27.1729 130.887 27.1515C130.902 27.1301 130.92 27.1119 130.942 27.0979C130.964 27.0839 130.988 27.0744 131.013 27.07C131.322 27.03 131.635 27.0648 131.928 27.1713C132.22 27.2778 132.482 27.4529 132.692 27.682C132.728 27.7192 132.748 27.7689 132.748 27.8205C132.748 27.8721 132.728 27.9218 132.692 27.959C132.669 27.9814 132.641 27.9975 132.609 28.006Z" fill="#263238"/>
<path d="M131.173 34.273C131.645 34.1737 132.086 33.9623 132.459 33.6567C132.832 33.3511 133.126 32.9602 133.316 32.517C133.325 32.4905 133.323 32.4614 133.311 32.436C133.299 32.4107 133.277 32.3913 133.251 32.382C133.224 32.3727 133.195 32.3744 133.17 32.3865C133.144 32.3987 133.125 32.4205 133.116 32.447C132.934 32.8547 132.658 33.2138 132.312 33.4956C131.966 33.7773 131.558 33.9737 131.122 34.069C131.108 34.0721 131.096 34.0778 131.084 34.0858C131.073 34.0938 131.063 34.1039 131.056 34.1156C131.049 34.1273 131.044 34.1404 131.042 34.154C131.039 34.1676 131.04 34.1815 131.043 34.195C131.046 34.2085 131.052 34.2212 131.06 34.2324C131.068 34.2437 131.078 34.2533 131.089 34.2606C131.101 34.2679 131.114 34.2729 131.128 34.2752C131.141 34.2775 131.155 34.2771 131.169 34.274L131.173 34.273Z" fill="#263238"/>
<path d="M126.094 28.71C126.055 28.7231 126.013 28.7231 125.973 28.71C125.925 28.6921 125.885 28.6562 125.863 28.6098C125.84 28.5634 125.837 28.5101 125.852 28.461C125.946 28.1644 126.11 27.8948 126.33 27.6751C126.551 27.4554 126.821 27.292 127.117 27.199C127.168 27.1876 127.22 27.1961 127.264 27.2225C127.309 27.249 127.341 27.2914 127.354 27.341C127.366 27.3911 127.358 27.4436 127.331 27.4877C127.305 27.5318 127.263 27.5641 127.213 27.578C126.98 27.6558 126.769 27.788 126.596 27.9636C126.424 28.1392 126.296 28.3532 126.222 28.588C126.212 28.6168 126.195 28.6428 126.173 28.6639C126.15 28.6851 126.124 28.7008 126.094 28.71Z" fill="#263238"/>
<path d="M138.531 174.834C138.248 174.856 137.966 174.782 137.731 174.623C137.657 174.56 137.601 174.48 137.566 174.389C137.531 174.299 137.519 174.202 137.531 174.106C137.531 174.049 137.546 173.993 137.576 173.944C137.605 173.895 137.648 173.855 137.699 173.829C138.158 173.593 139.489 174.413 139.639 174.507C139.655 174.517 139.668 174.533 139.676 174.55C139.684 174.568 139.687 174.588 139.684 174.607C139.68 174.626 139.672 174.644 139.659 174.658C139.645 174.672 139.628 174.682 139.61 174.687C139.257 174.776 138.895 174.825 138.531 174.834ZM137.917 173.979C137.873 173.977 137.83 173.985 137.79 174.003C137.769 174.014 137.753 174.031 137.742 174.051C137.731 174.072 137.726 174.095 137.728 174.118C137.719 174.184 137.726 174.25 137.749 174.312C137.773 174.374 137.811 174.429 137.861 174.473C138.322 174.684 138.847 174.71 139.328 174.547C138.897 174.268 138.416 174.075 137.912 173.979H137.917Z" fill="#010114"/>
<path d="M139.584 174.689C139.567 174.689 139.551 174.685 139.537 174.677C139.11 174.445 138.283 173.539 138.37 173.077C138.384 173.005 138.423 172.94 138.479 172.893C138.536 172.846 138.607 172.82 138.681 172.82C138.755 172.811 138.831 172.817 138.902 172.839C138.974 172.861 139.041 172.897 139.098 172.946C139.578 173.339 139.677 174.531 139.68 174.581C139.681 174.599 139.677 174.616 139.67 174.632C139.662 174.648 139.65 174.661 139.636 174.671C139.62 174.682 139.602 174.688 139.584 174.689ZM138.75 173.014H138.705C138.578 173.03 138.567 173.088 138.562 173.114C138.51 173.386 139.037 174.07 139.462 174.393C139.434 173.92 139.263 173.467 138.974 173.093C138.911 173.041 138.831 173.013 138.75 173.014Z" fill="#010114"/>
<path d="M121.296 174.057L121.28 174.064C120.633 174.271 119.475 174.564 118.98 174.218C118.907 174.167 118.847 174.1 118.806 174.021C118.765 173.942 118.744 173.855 118.744 173.766C118.74 173.712 118.75 173.659 118.773 173.61C118.796 173.562 118.831 173.52 118.875 173.489C119.34 173.162 121.087 173.805 121.285 173.88C121.302 173.887 121.317 173.899 121.327 173.914C121.338 173.929 121.344 173.947 121.345 173.966C121.346 173.984 121.342 174.002 121.334 174.019C121.325 174.035 121.312 174.049 121.296 174.058V174.057ZM119.013 173.633L118.99 173.647C118.972 173.659 118.958 173.676 118.949 173.695C118.94 173.715 118.937 173.737 118.94 173.758C118.939 173.817 118.952 173.875 118.978 173.927C119.005 173.979 119.044 174.024 119.092 174.058C119.7 174.248 120.356 174.212 120.94 173.958C120.335 173.689 119.672 173.578 119.012 173.633H119.013Z" fill="#010114"/>
<path d="M121.296 174.057C121.272 174.069 121.245 174.071 121.22 174.063C120.7 173.897 119.62 173.12 119.64 172.648C119.645 172.537 119.708 172.392 119.972 172.335C120.067 172.314 120.166 172.312 120.262 172.33C120.358 172.349 120.449 172.386 120.53 172.441C120.954 172.846 121.239 173.374 121.346 173.951C121.349 173.968 121.348 173.985 121.343 174.001C121.338 174.018 121.328 174.032 121.316 174.044C121.31 174.049 121.303 174.053 121.296 174.057ZM119.905 172.567C119.838 172.603 119.836 172.645 119.835 172.661C119.821 172.945 120.567 173.567 121.108 173.813C121.008 173.352 120.769 172.933 120.423 172.613C120.364 172.572 120.297 172.544 120.226 172.53C120.156 172.517 120.083 172.518 120.013 172.534C119.976 172.54 119.939 172.551 119.905 172.567Z" fill="#010114"/>
<path d="M146.882 50.477C146.777 52.091 146.587 53.594 146.39 55.146C146.193 56.698 145.928 58.219 145.637 59.754C145.061 62.8892 144.211 65.9677 143.096 68.954L142.605 70.111L142.481 70.4L142.45 70.472L142.399 70.582L142.255 70.867C142.065 71.2133 141.836 71.5373 141.574 71.833C141.143 72.3181 140.639 72.7331 140.08 73.063C139.628 73.3324 139.153 73.5629 138.661 73.752C137.023 74.3428 135.311 74.7003 133.573 74.814C130.419 75.0497 127.247 74.9313 124.119 74.461L124.232 71.361L126.418 71.114C127.151 71.027 127.88 70.914 128.605 70.814C130.052 70.601 131.484 70.363 132.849 70.046C134.112 69.789 135.339 69.3821 136.505 68.834C136.82 68.7019 137.095 68.4916 137.305 68.223C137.318 68.152 137.16 68.463 137.346 67.966L137.673 67.01C138.474 64.2693 139.087 61.4772 139.507 58.653C139.742 57.215 139.943 55.764 140.137 54.309C140.331 52.854 140.491 51.369 140.644 49.974L146.882 50.477Z" fill="#FFC3BD"/>
<path d="M147.242 47.481C149.265 50.874 147.542 61.538 147.542 61.538L136.942 59.579C136.942 59.579 136.368 53.479 138.386 48.785C140.577 43.676 144.791 43.37 147.242 47.481Z" fill="#010114"/>
<path d="M121.264 80.952L115.639 54.788C115.369 53.6707 114.743 52.6715 113.856 51.941C112.968 51.2105 111.867 50.7883 110.719 50.738H89.166C90.3145 50.788 91.4156 51.2102 92.3033 51.9407C93.1909 52.6712 93.817 53.6706 94.087 54.788L99.712 80.952C99.982 82.0693 100.608 83.0685 101.495 83.799C102.383 84.5295 103.484 84.9518 104.632 85.002H126.184C125.036 84.9518 123.935 84.5295 123.047 83.799C122.16 83.0685 121.534 82.0693 121.264 80.952Z" fill="#263238"/>
<path opacity="0.7" d="M121.264 80.952L115.639 54.788C115.369 53.6707 114.743 52.6715 113.856 51.941C112.968 51.2105 111.867 50.7883 110.719 50.738H89.166C90.3145 50.788 91.4156 51.2102 92.3033 51.9407C93.1909 52.6712 93.817 53.6706 94.087 54.788L99.712 80.952C99.982 82.0693 100.608 83.0685 101.495 83.799C102.383 84.5295 103.484 84.9518 104.632 85.002H126.184C125.036 84.9518 123.935 84.5295 123.047 83.799C122.16 83.0685 121.534 82.0693 121.264 80.952Z" fill="#010114"/>
<path d="M89.1663 50.738H110.718C109.615 50.7587 108.557 51.1816 107.743 51.9274C106.93 52.6732 106.417 53.6905 106.3 54.788L100.709 115.588C100.593 116.685 100.08 117.703 99.266 118.448C98.4525 119.194 97.3947 119.617 96.2913 119.638H82.8393C82.3211 119.648 81.8069 119.546 81.331 119.341C80.8551 119.136 80.4286 118.831 80.0799 118.448C79.7313 118.064 79.4687 117.611 79.3095 117.118C79.1504 116.624 79.0985 116.103 79.1573 115.588L84.7493 54.788C84.8656 53.6906 85.3786 52.6735 86.1919 51.9278C87.0053 51.182 88.063 50.7589 89.1663 50.738Z" fill="#010114"/>
<path d="M92.6088 115.587C92.55 116.102 92.6019 116.623 92.7611 117.117C92.9202 117.61 93.1829 118.063 93.5315 118.447C93.8801 118.83 94.3066 119.135 94.7825 119.34C95.2584 119.545 95.7726 119.647 96.2908 119.637H74.7388C74.2206 119.647 73.7063 119.546 73.2303 119.34C72.7544 119.135 72.3278 118.831 71.9791 118.447C71.6304 118.064 71.3678 117.61 71.2087 117.117C71.0497 116.624 70.9979 116.102 71.0568 115.587H92.6088Z" fill="#263238"/>
<path opacity="0.7" d="M92.6088 115.587C92.55 116.102 92.6019 116.623 92.7611 117.117C92.9202 117.61 93.1829 118.063 93.5315 118.447C93.8801 118.83 94.3066 119.135 94.7825 119.34C95.2584 119.545 95.7726 119.647 96.2908 119.637H74.7388C74.2206 119.647 73.7063 119.546 73.2303 119.34C72.7544 119.135 72.3278 118.831 71.9791 118.447C71.6304 118.064 71.3678 117.61 71.2087 117.117C71.0497 116.624 70.9979 116.102 71.0568 115.587H92.6088Z" fill="#010114"/>
<g opacity="0.5">
<path opacity="0.5" d="M102.566 57.55H87.9816C87.869 57.5516 87.7574 57.5291 87.6541 57.4842C87.5508 57.4393 87.4583 57.3729 87.3826 57.2895C87.307 57.2061 87.2499 57.1075 87.2153 57.0004C87.1806 56.8932 87.1692 56.7799 87.1817 56.668C87.2076 56.4293 87.3195 56.2081 87.4965 56.0458C87.6735 55.8835 87.9035 55.7912 88.1436 55.786H102.726C102.838 55.7845 102.95 55.8069 103.053 55.8518C103.156 55.8967 103.249 55.9631 103.325 56.0465C103.4 56.1299 103.457 56.2285 103.492 56.3356C103.527 56.4428 103.538 56.5561 103.526 56.668C103.5 56.9064 103.388 57.1273 103.212 57.2896C103.035 57.4518 102.805 57.5444 102.566 57.55Z" fill="white"/>
<path opacity="0.5" d="M102.131 62.321H87.5471C87.4345 62.3225 87.3228 62.3001 87.2196 62.2552C87.1163 62.2103 87.0237 62.1439 86.9481 62.0605C86.8724 61.9771 86.8154 61.8785 86.7807 61.7714C86.7461 61.6642 86.7346 61.5509 86.7471 61.439C86.773 61.2002 86.8849 60.9791 87.062 60.8168C87.239 60.6545 87.469 60.5622 87.7091 60.557H102.293C102.406 60.5555 102.517 60.5779 102.621 60.6228C102.724 60.6677 102.816 60.7341 102.892 60.8175C102.968 60.9009 103.025 60.9995 103.059 61.1066C103.094 61.2138 103.106 61.3271 103.093 61.439C103.067 61.6778 102.956 61.8991 102.778 62.0615C102.601 62.2238 102.371 62.3161 102.131 62.321Z" fill="white"/>
<path opacity="0.5" d="M98.1225 67.092H87.1135C87.0009 67.0935 86.8892 67.0711 86.786 67.0262C86.6827 66.9813 86.5901 66.9149 86.5145 66.8315C86.4388 66.7481 86.3818 66.6495 86.3471 66.5424C86.3125 66.4352 86.301 66.3219 86.3135 66.21C86.3394 65.9712 86.4513 65.7501 86.6284 65.5878C86.8054 65.4255 87.0354 65.3332 87.2755 65.328H98.2845C98.3971 65.3265 98.5088 65.3489 98.612 65.3938C98.7153 65.4387 98.8079 65.5051 98.8835 65.5885C98.9592 65.6719 99.0162 65.7705 99.0509 65.8776C99.0855 65.9848 99.097 66.0981 99.0845 66.21C99.0586 66.4487 98.9467 66.6699 98.7696 66.8322C98.5926 66.9945 98.3626 67.0868 98.1225 67.092Z" fill="white"/>
<path opacity="0.5" d="M90.4129 71.862H86.6799C86.5673 71.8636 86.4557 71.8411 86.3524 71.7962C86.2491 71.7513 86.1566 71.6849 86.0809 71.6015C86.0052 71.5181 85.9482 71.4195 85.9135 71.3124C85.8789 71.2052 85.8674 71.0919 85.8799 70.98C85.9056 70.7413 86.0173 70.5202 86.1942 70.3579C86.371 70.1956 86.6009 70.1032 86.8409 70.098H90.5749C90.6875 70.0965 90.7992 70.1189 90.9024 70.1638C91.0057 70.2087 91.0983 70.2751 91.1739 70.3585C91.2496 70.4419 91.3066 70.5405 91.3413 70.6476C91.3759 70.7548 91.3874 70.8681 91.3749 70.98C91.349 71.2188 91.2371 71.4399 91.06 71.6022C90.883 71.7645 90.653 71.8569 90.4129 71.862Z" fill="white"/>
<path opacity="0.5" d="M100.829 76.633H86.2414C86.1288 76.6345 86.0172 76.6121 85.9139 76.5672C85.8106 76.5223 85.7181 76.4559 85.6424 76.3725C85.5667 76.2891 85.5097 76.1905 85.4751 76.0834C85.4404 75.9762 85.4289 75.8629 85.4414 75.751C85.4673 75.5123 85.5793 75.2911 85.7563 75.1288C85.9333 74.9665 86.1633 74.8742 86.4034 74.869H100.987C101.1 74.8675 101.212 74.8899 101.315 74.9348C101.418 74.9797 101.511 75.0461 101.586 75.1295C101.662 75.2129 101.719 75.3115 101.754 75.4186C101.788 75.5258 101.8 75.6391 101.787 75.751C101.762 75.9891 101.65 76.2097 101.474 76.3719C101.298 76.5341 101.069 76.6269 100.829 76.633Z" fill="white"/>
<path opacity="0.5" d="M94.6527 81.404H85.8127C85.7001 81.4056 85.5884 81.3831 85.4852 81.3382C85.3819 81.2933 85.2893 81.2269 85.2137 81.1435C85.138 81.0601 85.081 80.9615 85.0463 80.8544C85.0117 80.7472 85.0002 80.6339 85.0127 80.522C85.0384 80.2833 85.1501 80.0622 85.327 79.8999C85.5038 79.7376 85.7337 79.6452 85.9737 79.64H94.8137C94.9263 79.6385 95.038 79.6609 95.1412 79.7058C95.2445 79.7507 95.3371 79.8171 95.4127 79.9005C95.4884 79.9839 95.5454 80.0825 95.5801 80.1896C95.6147 80.2968 95.6262 80.4101 95.6137 80.522C95.5878 80.7606 95.476 80.9816 95.2992 81.1439C95.1224 81.3062 94.8926 81.3986 94.6527 81.404Z" fill="white"/>
<path opacity="0.5" d="M99.9621 86.174H85.3781C85.2655 86.1755 85.1539 86.1531 85.0506 86.1082C84.9473 86.0633 84.8548 85.9969 84.7791 85.9135C84.7035 85.8301 84.6464 85.7315 84.6118 85.6244C84.5771 85.5172 84.5657 85.4039 84.5781 85.292C84.6041 85.0533 84.716 84.8321 84.893 84.6698C85.07 84.5075 85.3 84.4152 85.5401 84.41H100.125C100.238 84.4085 100.349 84.4309 100.453 84.4758C100.556 84.5207 100.648 84.5871 100.724 84.6705C100.8 84.7539 100.857 84.8525 100.892 84.9596C100.926 85.0668 100.938 85.1801 100.925 85.292C100.899 85.5309 100.787 85.7522 100.61 85.9145C100.433 86.0769 100.202 86.1691 99.9621 86.174Z" fill="white"/>
<path opacity="0.5" d="M95.9536 90.945H84.9446C84.8319 90.9466 84.7203 90.9241 84.617 90.8792C84.5137 90.8343 84.4212 90.7679 84.3455 90.6845C84.2699 90.6011 84.2128 90.5025 84.1782 90.3954C84.1435 90.2882 84.1321 90.1749 84.1445 90.063C84.1705 89.8242 84.2824 89.6031 84.4594 89.4408C84.6364 89.2785 84.8665 89.1862 85.1066 89.181H96.1155C96.2282 89.1795 96.3398 89.2019 96.4431 89.2468C96.5464 89.2917 96.6389 89.3581 96.7146 89.4415C96.7902 89.5249 96.8473 89.6235 96.8819 89.7306C96.9166 89.8378 96.928 89.9511 96.9155 90.063C96.8896 90.3018 96.7777 90.5229 96.6007 90.6852C96.4237 90.8475 96.1937 90.9399 95.9536 90.945Z" fill="white"/>
<path opacity="0.5" d="M88.244 95.715H84.508C84.3954 95.7165 84.2838 95.6941 84.1805 95.6492C84.0772 95.6043 83.9847 95.5379 83.909 95.4545C83.8334 95.3711 83.7763 95.2725 83.7417 95.1654C83.707 95.0582 83.6955 94.9449 83.708 94.833C83.734 94.5943 83.8459 94.3731 84.0229 94.2108C84.1999 94.0485 84.4299 93.9562 84.67 93.951H88.408C88.5206 93.9495 88.6323 93.9719 88.7356 94.0168C88.8388 94.0617 88.9314 94.1281 89.007 94.2115C89.0827 94.2949 89.1398 94.3935 89.1744 94.5006C89.2091 94.6078 89.2205 94.7211 89.208 94.833C89.182 95.0721 89.0699 95.2935 88.8924 95.4559C88.715 95.6182 88.4845 95.7103 88.244 95.715Z" fill="white"/>
<path opacity="0.5" d="M98.6604 100.487H84.0764C83.9638 100.489 83.8521 100.466 83.7489 100.421C83.6456 100.376 83.553 100.31 83.4774 100.227C83.4017 100.143 83.3447 100.045 83.31 99.9374C83.2754 99.8302 83.2639 99.7169 83.2764 99.605C83.3023 99.3663 83.4142 99.1451 83.5912 98.9828C83.7683 98.8205 83.9983 98.7282 84.2384 98.723H98.8224C98.935 98.7215 99.0466 98.7439 99.1499 98.7888C99.2532 98.8337 99.3457 98.9001 99.4214 98.9835C99.4971 99.0669 99.5541 99.1655 99.5888 99.2726C99.6234 99.3798 99.6349 99.4931 99.6224 99.605C99.5965 99.8438 99.4845 100.065 99.3075 100.227C99.1305 100.39 98.9005 100.482 98.6604 100.487Z" fill="white"/>
<path opacity="0.5" d="M92.4828 105.257H83.6428C83.5302 105.259 83.4185 105.236 83.3153 105.191C83.212 105.146 83.1194 105.08 83.0438 104.997C82.9681 104.913 82.9111 104.815 82.8764 104.707C82.8418 104.6 82.8303 104.487 82.8428 104.375C82.8685 104.136 82.9804 103.915 83.1574 103.753C83.3345 103.59 83.5646 103.498 83.8048 103.493H92.6438C92.7564 103.491 92.8681 103.514 92.9713 103.559C93.0746 103.604 93.1672 103.67 93.2428 103.754C93.3185 103.837 93.3755 103.935 93.4102 104.043C93.4448 104.15 93.4563 104.263 93.4438 104.375C93.4179 104.614 93.3061 104.835 93.1293 104.997C92.9525 105.159 92.7227 105.252 92.4828 105.257Z" fill="white"/>
<path opacity="0.5" d="M97.7922 110.028H83.2082C83.0956 110.03 82.984 110.007 82.8807 109.962C82.7774 109.917 82.6849 109.851 82.6092 109.768C82.5335 109.684 82.4765 109.586 82.4418 109.478C82.4072 109.371 82.3957 109.258 82.4082 109.146C82.4341 108.907 82.5461 108.686 82.7231 108.524C82.9001 108.362 83.1301 108.269 83.3702 108.264H97.9522C98.0648 108.262 98.1765 108.285 98.2798 108.33C98.383 108.375 98.4756 108.441 98.5512 108.525C98.6269 108.608 98.6839 108.706 98.7186 108.814C98.7533 108.921 98.7647 109.034 98.7522 109.146C98.7263 109.384 98.6147 109.605 98.4381 109.768C98.2615 109.93 98.032 110.022 97.7922 110.028Z" fill="white"/>
</g>
<path d="M125.503 71.699L122.337 68.948L120.853 74.012C120.853 74.012 124.069 75.756 125.183 74.155L125.503 71.699Z" fill="#FFC3BD"/>
<path d="M118.887 68.75L117.857 72.994L120.849 74.014L122.333 68.949L118.887 68.75Z" fill="#FFC3BD"/>
</svg>
