<svg width="107" height="32" viewBox="0 0 107 32" fill="none" xmlns="http://www.w3.org/2000/svg">
<rect y="0.539673" width="33.381" height="30.9206" rx="6.92063" fill="#246BFD"/>
<path d="M15.3395 24.3633L10.0833 12.4218H9.93799L9.55043 24L7.12821 24.1211L8.26665 8.25556L14.1284 8.01333L16.5749 19.5431L19.4089 7.89222L25.2707 8.25556L25.9973 24L23.8173 24.3633L20.3535 11.4771H20.1598L17.5195 24L15.3395 24.3633Z" fill="#FCFDFE"/>
<rect width="3.46032" height="12.1111" transform="matrix(0 1 -1 0 36.332 12.651)" fill="#FCFDFE"/>
<path d="M45.0382 11.2879V13.6963H37.4429V11.2879H45.0382ZM39.3181 8.12248H42.4319V20.526C42.4319 20.9447 42.495 21.2658 42.6211 21.4894C42.753 21.7073 42.925 21.8564 43.1372 21.9367C43.3494 22.017 43.5845 22.0571 43.8426 22.0571C44.0375 22.0571 44.2153 22.0428 44.3759 22.0141C44.5422 21.9855 44.6683 21.9596 44.7543 21.9367L45.279 24.371C45.1127 24.4283 44.8748 24.4914 44.5651 24.5602C44.2612 24.629 43.8884 24.6692 43.4469 24.6806C42.667 24.7036 41.9645 24.586 41.3395 24.328C40.7144 24.0642 40.2184 23.657 39.8514 23.1065C39.4901 22.556 39.3124 21.8679 39.3181 21.0421V8.12248ZM47.6423 24.5V11.2879H50.6615V13.4899H50.7991C51.04 12.7272 51.4529 12.1394 52.0378 11.7266C52.6284 11.3079 53.3022 11.0986 54.0592 11.0986C54.2312 11.0986 54.4233 11.1072 54.6355 11.1244C54.8534 11.1359 55.034 11.156 55.1774 11.1847V14.049C55.0455 14.0031 54.8362 13.963 54.5494 13.9286C54.2685 13.8884 53.9961 13.8684 53.7323 13.8684C53.1646 13.8684 52.6542 13.9917 52.2012 14.2382C51.7539 14.4791 51.4012 14.8146 51.1432 15.2446C50.8852 15.6747 50.7561 16.1707 50.7561 16.7327V24.5H47.6423ZM60.8114 24.7667C59.9742 24.7667 59.2201 24.6176 58.5492 24.3194C57.884 24.0154 57.3565 23.5682 56.9665 22.9775C56.5823 22.3869 56.3902 21.6586 56.3902 20.7927C56.3902 20.0472 56.5278 19.4308 56.8031 18.9433C57.0783 18.4559 57.4539 18.066 57.9299 17.7735C58.4059 17.4811 58.942 17.2603 59.5384 17.1112C60.1405 16.9564 60.7627 16.8445 61.405 16.7757C62.1791 16.6954 62.807 16.6238 63.2887 16.5607C63.7704 16.4919 64.1202 16.3887 64.3381 16.251C64.5618 16.1077 64.6736 15.8869 64.6736 15.5887V15.5371C64.6736 14.8891 64.4815 14.3873 64.0973 14.0318C63.7131 13.6763 63.1597 13.4985 62.4372 13.4985C61.6745 13.4985 61.0695 13.6648 60.6222 13.9974C60.1807 14.33 59.8825 14.7228 59.7276 15.1758L56.8203 14.7629C57.0497 13.9601 57.4281 13.2892 57.9557 12.7502C58.4833 12.2054 59.1284 11.7982 59.8911 11.5287C60.6537 11.2535 61.4967 11.1158 62.42 11.1158C63.0565 11.1158 63.6901 11.1904 64.3209 11.3395C64.9517 11.4886 65.528 11.7352 66.0498 12.0792C66.5717 12.4176 66.9903 12.8792 67.3057 13.4641C67.6268 14.049 67.7874 14.7801 67.7874 15.6575V24.5H64.794V22.6851H64.6908C64.5015 23.0521 64.2349 23.3961 63.8908 23.7173C63.5525 24.0326 63.1253 24.2878 62.6092 24.4828C62.0988 24.672 61.4996 24.7667 60.8114 24.7667ZM61.62 22.4786C62.2451 22.4786 62.787 22.3553 63.2457 22.1087C63.7045 21.8564 64.0571 21.5238 64.3037 21.111C64.556 20.6981 64.6822 20.2479 64.6822 19.7605V18.2036C64.5847 18.2839 64.4184 18.3584 64.1833 18.4272C63.9539 18.4961 63.6959 18.5563 63.4091 18.6079C63.1224 18.6595 62.8386 18.7054 62.5576 18.7455C62.2766 18.7856 62.0329 18.82 61.8264 18.8487C61.362 18.9118 60.9462 19.015 60.5792 19.1584C60.2122 19.3017 59.9226 19.5024 59.7104 19.7605C59.4983 20.0128 59.3922 20.3397 59.3922 20.7411C59.3922 21.3145 59.6015 21.7475 60.0201 22.0399C60.4387 22.3324 60.972 22.4786 61.62 22.4786ZM76.6815 24.758C75.3626 24.758 74.23 24.4685 73.2838 23.8893C72.3434 23.3101 71.618 22.5102 71.1076 21.4894C70.603 20.463 70.3507 19.2817 70.3507 17.9455C70.3507 16.6037 70.6087 15.4195 71.1248 14.3931C71.6409 13.3609 72.3692 12.5581 73.3096 11.9846C74.2558 11.4054 75.374 11.1158 76.6643 11.1158C77.7366 11.1158 78.6857 11.3137 79.5114 11.7094C80.3429 12.0993 81.0052 12.6527 81.4984 13.3695C81.9916 14.0805 82.2725 14.912 82.3414 15.864H79.3652C79.2448 15.2274 78.958 14.697 78.505 14.2726C78.0577 13.8426 77.4585 13.6275 76.7073 13.6275C76.0708 13.6275 75.5116 13.7996 75.03 14.1436C74.5483 14.482 74.1727 14.9694 73.9031 15.6059C73.6394 16.2424 73.5075 17.0051 73.5075 17.8939C73.5075 18.7942 73.6394 19.5684 73.9031 20.2164C74.1669 20.8586 74.5368 21.3547 75.0128 21.7045C75.4944 22.0485 76.0593 22.2206 76.7073 22.2206C77.166 22.2206 77.576 22.1345 77.9373 21.9625C78.3043 21.7847 78.6111 21.5296 78.8577 21.197C79.1043 20.8644 79.2734 20.4601 79.3652 19.9841H82.3414C82.2668 20.9188 81.9916 21.7475 81.5156 22.47C81.0396 23.1868 80.3916 23.7488 79.5716 24.1559C78.7516 24.5573 77.7882 24.758 76.6815 24.758ZM87.7367 20.354L87.7281 16.5951H88.227L92.9751 11.2879H96.6136L90.7731 17.7907H90.128L87.7367 20.354ZM84.8982 24.5V6.88384H88.012V24.5H84.8982ZM93.1902 24.5L88.8894 18.4875L90.9882 16.294L96.9147 24.5H93.1902ZM98.6888 24.5V11.2879H101.708V13.4899H101.846C102.086 12.7272 102.499 12.1394 103.084 11.7266C103.675 11.3079 104.349 11.0986 105.106 11.0986C105.278 11.0986 105.47 11.1072 105.682 11.1244C105.9 11.1359 106.08 11.156 106.224 11.1847V14.049C106.092 14.0031 105.883 13.963 105.596 13.9286C105.315 13.8884 105.043 13.8684 104.779 13.8684C104.211 13.8684 103.701 13.9917 103.248 14.2382C102.8 14.4791 102.448 14.8146 102.19 15.2446C101.932 15.6747 101.803 16.1707 101.803 16.7327V24.5H98.6888Z" fill="#FCFDFE"/>
</svg>
