<svg width="107" height="32" viewBox="0 0 107 32" fill="none" xmlns="http://www.w3.org/2000/svg">
<rect y="0.53968" width="33.381" height="30.9206" rx="6.92063" fill="#246BFD"/>
<path d="M23.8173 24.3633L20.3535 11.4771H20.1598L17.5195 24L15.3395 24.3633L10.0833 12.4218H9.93799L9.55043 24L7.12821 24.1211L8.26665 8.25556L14.1284 8.01333L16.5749 19.5431L19.4089 7.89222L25.2707 8.25556L25.9973 24L23.8173 24.3633Z" fill="#FCFDFE"/>
<rect width="3.46032" height="12.1111" transform="matrix(0 1 -1 0 36.332 12.651)" fill="#FCFDFE"/>
<path d="M45.0387 11.2879V13.6963H37.4434V11.2879H45.0387ZM39.3186 8.12248H42.4324V20.526C42.4324 20.9447 42.4955 21.2658 42.6216 21.4894C42.7535 21.7073 42.9255 21.8564 43.1377 21.9367C43.3499 22.017 43.585 22.0571 43.843 22.0571C44.038 22.0571 44.2158 22.0428 44.3763 22.0141C44.5426 21.9855 44.6688 21.9596 44.7548 21.9367L45.2795 24.371C45.1132 24.4283 44.8752 24.4914 44.5656 24.5602C44.2617 24.629 43.8889 24.6692 43.4474 24.6806C42.6675 24.7036 41.965 24.586 41.34 24.328C40.7149 24.0642 40.2189 23.657 39.8519 23.1065C39.4906 22.556 39.3128 21.8679 39.3186 21.0421V8.12248ZM47.6428 24.5V11.2879H50.662V13.4899H50.7996C51.0405 12.7272 51.4533 12.1394 52.0383 11.7266C52.6289 11.3079 53.3027 11.0986 54.0596 11.0986C54.2317 11.0986 54.4238 11.1072 54.636 11.1244C54.8539 11.1359 55.0345 11.156 55.1779 11.1847V14.049C55.046 14.0031 54.8367 13.963 54.5499 13.9286C54.269 13.8884 53.9966 13.8684 53.7328 13.8684C53.1651 13.8684 52.6547 13.9917 52.2017 14.2382C51.7544 14.4791 51.4017 14.8146 51.1437 15.2446C50.8856 15.6747 50.7566 16.1707 50.7566 16.7327V24.5H47.6428ZM60.8119 24.7667C59.9747 24.7667 59.2206 24.6176 58.5497 24.3194C57.8845 24.0154 57.3569 23.5682 56.967 22.9775C56.5828 22.3869 56.3907 21.6586 56.3907 20.7927C56.3907 20.0472 56.5283 19.4308 56.8036 18.9433C57.0788 18.4559 57.4544 18.066 57.9304 17.7735C58.4063 17.4811 58.9425 17.2603 59.5389 17.1112C60.141 16.9564 60.7632 16.8445 61.4054 16.7757C62.1796 16.6954 62.8075 16.6238 63.2892 16.5607C63.7709 16.4919 64.1207 16.3887 64.3386 16.251C64.5622 16.1077 64.6741 15.8869 64.6741 15.5887V15.5371C64.6741 14.8891 64.482 14.3873 64.0978 14.0318C63.7136 13.6763 63.1602 13.4985 62.4376 13.4985C61.675 13.4985 61.07 13.6648 60.6227 13.9974C60.1811 14.33 59.883 14.7228 59.7281 15.1758L56.8208 14.7629C57.0501 13.9601 57.4286 13.2892 57.9562 12.7502C58.4838 12.2054 59.1289 11.7982 59.8916 11.5287C60.6542 11.2535 61.4972 11.1158 62.4204 11.1158C63.057 11.1158 63.6906 11.1904 64.3214 11.3395C64.9522 11.4886 65.5285 11.7352 66.0503 12.0792C66.5722 12.4176 66.9908 12.8792 67.3062 13.4641C67.6273 14.049 67.7879 14.7801 67.7879 15.6575V24.5H64.7945V22.6851H64.6913C64.502 23.0521 64.2354 23.3961 63.8913 23.7173C63.553 24.0326 63.1258 24.2878 62.6097 24.4828C62.0993 24.672 61.5001 24.7667 60.8119 24.7667ZM61.6205 22.4786C62.2455 22.4786 62.7874 22.3553 63.2462 22.1087C63.705 21.8564 64.0576 21.5238 64.3042 21.111C64.5565 20.6981 64.6827 20.2479 64.6827 19.7605V18.2036C64.5852 18.2839 64.4189 18.3584 64.1838 18.4272C63.9544 18.4961 63.6964 18.5563 63.4096 18.6079C63.1229 18.6595 62.8391 18.7054 62.5581 18.7455C62.2771 18.7856 62.0334 18.82 61.8269 18.8487C61.3624 18.9118 60.9467 19.015 60.5797 19.1584C60.2127 19.3017 59.9231 19.5024 59.7109 19.7605C59.4987 20.0128 59.3927 20.3397 59.3927 20.7411C59.3927 21.3145 59.602 21.7475 60.0206 22.0399C60.4392 22.3324 60.9725 22.4786 61.6205 22.4786ZM76.682 24.758C75.363 24.758 74.2305 24.4685 73.2843 23.8893C72.3439 23.3101 71.6185 22.5102 71.1081 21.4894C70.6035 20.463 70.3512 19.2817 70.3512 17.9455C70.3512 16.6037 70.6092 15.4195 71.1253 14.3931C71.6414 13.3609 72.3697 12.5581 73.3101 11.9846C74.2563 11.4054 75.3745 11.1158 76.6648 11.1158C77.7371 11.1158 78.6861 11.3137 79.5119 11.7094C80.3434 12.0993 81.0057 12.6527 81.4989 13.3695C81.992 14.0805 82.273 14.912 82.3418 15.864H79.3657C79.2452 15.2274 78.9585 14.697 78.5055 14.2726C78.0582 13.8426 77.459 13.6275 76.7078 13.6275C76.0712 13.6275 75.5121 13.7996 75.0304 14.1436C74.5488 14.482 74.1731 14.9694 73.9036 15.6059C73.6398 16.2424 73.508 17.0051 73.508 17.8939C73.508 18.7942 73.6398 19.5684 73.9036 20.2164C74.1674 20.8586 74.5373 21.3547 75.0132 21.7045C75.4949 22.0485 76.0598 22.2206 76.7078 22.2206C77.1665 22.2206 77.5765 22.1345 77.9378 21.9625C78.3048 21.7847 78.6116 21.5296 78.8582 21.197C79.1048 20.8644 79.2739 20.4601 79.3657 19.9841H82.3418C82.2673 20.9188 81.992 21.7475 81.5161 22.47C81.0401 23.1868 80.3921 23.7488 79.5721 24.1559C78.7521 24.5573 77.7887 24.758 76.682 24.758ZM87.7372 20.354L87.7286 16.5951H88.2275L92.9756 11.2879H96.6141L90.7736 17.7907H90.1285L87.7372 20.354ZM84.8987 24.5V6.88384H88.0125V24.5H84.8987ZM93.1907 24.5L88.8898 18.4875L90.9886 16.294L96.9152 24.5H93.1907ZM98.6893 24.5V11.2879H101.708V13.4899H101.846C102.087 12.7272 102.5 12.1394 103.085 11.7266C103.675 11.3079 104.349 11.0986 105.106 11.0986C105.278 11.0986 105.47 11.1072 105.682 11.1244C105.9 11.1359 106.081 11.156 106.224 11.1847V14.049C106.092 14.0031 105.883 13.963 105.596 13.9286C105.315 13.8884 105.043 13.8684 104.779 13.8684C104.212 13.8684 103.701 13.9917 103.248 14.2382C102.801 14.4791 102.448 14.8146 102.19 15.2446C101.932 15.6747 101.803 16.1707 101.803 16.7327V24.5H98.6893Z" fill="#010114"/>
</svg>
